<?xml version="1.0" encoding="utf-8"?>
<!-- Generator: Adobe Illustrator 27.0.0, SVG Export Plug-In . SVG Version: 6.00 Build 0)  -->
<svg version="1.1" id="Layer_1" xmlns="http://www.w3.org/2000/svg" xmlns:xlink="http://www.w3.org/1999/xlink" x="0px" y="0px"
	 viewBox="0 0 2000 642" style="enable-background:new 0 0 2000 642;" xml:space="preserve">
<style type="text/css">
	.st0{fill-rule:evenodd;clip-rule:evenodd;fill:#FFFFFF;}
	.st1{fill:#FFFFFF;}
</style>
<path class="st0" d="M1019.9,92.5h8.3l9.4,57.5h28.3l-10.7-64.9c5.2-4.5,9.5-10.9,9.5-19.2V39.5c0-17.5-18.6-26.7-26.7-26.7h-48V150
	h29.9L1019.9,92.5z M1019.9,35.1h12c1.6,0,3,1.3,3,2.9v29.2c0,1.6-1.3,2.9-2.9,2.9l0,0h-12L1019.9,35.1z"/>
<path class="st0" d="M930.8,151.1h21.6c8,0,26.5-10.4,26.5-28V40c0-17.6-18.4-28.3-26.5-28.3h-21.6c-8,0-26.5,10.7-26.5,28.3v83.2
	C904.3,140.7,922.7,151.1,930.8,151.1z M934.3,38c0-1.6,1.3-2.9,2.9-2.9h8.7c1.6,0,2.9,1.3,2.9,2.9c0,0,0,0,0,0v86.9
	c0,1.6-1.3,2.9-2.9,2.9l0,0h-8.7c-1.6,0-2.9-1.3-2.9-2.9c0,0,0,0,0,0L934.3,38z"/>
<path class="st0" d="M1660.4,224.7h-144.8v414h90.1V465.2h54.7c24.4,0,80.5-26.3,80.5-80.2v-79.7
	C1740.9,252.6,1684.8,224.7,1660.4,224.7z M1650.9,389c0,5-4,9-9,9c0,0-0.1,0-0.1,0h-36.1V292h36.1c5,0,9.1,4,9.1,9L1650.9,389z"/>
<path class="st0" d="M1292.3,151.1h21.6c8,0,26.5-10.4,26.5-28V40c0-17.6-18.5-28.3-26.5-28.3h-21.6c-8,0-26.5,10.7-26.5,28.3v83.2
	C1265.8,140.7,1284.3,151.1,1292.3,151.1z M1295.9,38c0-1.6,1.3-2.9,2.9-2.9h8.7c1.6,0,2.9,1.3,2.9,2.9c0,0,0,0,0,0v86.9
	c0,1.6-1.3,2.9-2.9,2.9c0,0,0,0,0,0h-8.7c-1.6,0-2.9-1.3-2.9-2.9c0,0,0,0,0,0L1295.9,38z"/>
<path class="st0" d="M1067.1,421.1l-91.4-36.4c-10.7-4.2-10.7-6.5-10.7-15.2v-69c0-4.9,4-8.8,8.9-8.8h26.3c4.9,0,8.8,3.9,8.9,8.8
	v76.1h90.6v-70.1c0-53-55.7-85.4-80-85.4h-65.2c-24.3,0-80,32.4-80,85.4v85.3c0,24.7,10.3,41.7,32.3,50.4l92.6,36.7
	c9.7,4.2,9.6,4.2,9.6,14.6v69.2c0,4.9-4,8.8-8.9,8.8h-26.3c-4.9,0-8.8-3.9-8.9-8.8v-76.1h-90.5v70.1c0,53,55.7,85.4,80,85.4h65.2
	c24.3,0,80-32.4,80-85.4v-85.3C1099.4,447.2,1088.6,429.7,1067.1,421.1z"/>
<path class="st0" d="M1221.3,123.2V39.4c0-17.6-18.6-26.6-26.7-26.6h-48V150h48C1202.6,150,1221.3,140.8,1221.3,123.2z
	 M1191.4,124.8c0,1.6-1.3,2.9-2.9,2.9c0,0,0,0,0,0h-12V35.1h12c1.6,0,3,1.3,3,2.9c0,0,0,0,0,0C1191.4,62.8,1191.4,99.5,1191.4,124.8
	z"/>
<polygon class="st0" points="1135.5,124.7 1105.7,124.7 1105.7,12.8 1075.8,12.8 1075.8,150 1135.5,150 "/>
<path class="st0" d="M1999.6,471.5c0-24.3-10.8-41.8-32.4-50.4l-91.5-36.4c-10.7-4.2-10.7-6.5-10.7-15.2v-69c0-4.9,4-8.8,8.9-8.8
	h26.2c4.9,0,8.8,3.9,8.9,8.8v76.1h90.6v-70.1c0-53-55.7-85.4-80-85.4h-65.2c-24.3,0-80,32.4-80,85.4v85.3
	c0,24.7,10.3,41.7,32.3,50.4l92.6,36.7c9.7,4.2,9.6,4.2,9.6,14.6v69.2c0,4.9-4,8.8-8.9,8.8h-26.2c-4.9,0-8.8-3.9-8.9-8.8v-76.1
	h-90.6v70.1c0,53,55.7,85.4,80,85.4h65.1c24.3,0,80-32.4,80-85.4V471.5z"/>
<path class="st0" d="M1407.9,70.3h-26.4V38.1h34.4V12.8h-64.3V150h29.9V92.5h26.4V70.3z"/>
<polygon class="st0" points="1268.1,398 1223.2,398 1223.2,224.7 1133.1,224.7 1133.1,638.6 1223.2,638.6 1223.2,465.2 
	1268.1,465.2 1268.1,638.6 1358.2,638.6 1358.2,224.7 1268.1,224.7 "/>
<path class="st0" d="M400.6,224.7l-44.6,414h85.4l10.4-97.1h51.7l10.5,97.1h85.4l-44.6-414H400.6z M459.9,465.2l17.6-164.3
	l17.7,164.3H459.9z"/>
<path class="st0" d="M829.3,150l7.5-66.2l7.5,66.2h37.4l14.8-137.2h-28.3l-10,93.2l-10.4-93.2h-22L815.4,106l-10-93.2H777L791.8,150
	H829.3z"/>
<path class="st0" d="M840.7,385v-79.7c-0.1-52.8-56.2-80.6-80.5-80.6H615.5v414h90.1V465.2h25.1L759,638.6h85.4l-32.2-195.8
	C828,429.3,840.7,410,840.7,385z M750.7,389.2c0,4.9-3.9,8.8-8.8,8.8c0,0,0,0,0,0h-36.3V292h36.1c4.9,0,9,3.9,9,8.8c0,0,0,0,0,0
	L750.7,389.2z"/>
<rect x="1391.8" y="224.7" class="st1" width="90.2" height="414"/>
<path class="st0" d="M275.6,224.7l-30.3,281.1L214,224.7h-66.3l-31.3,281.1L86,224.7H0.6l44.6,414h113l22.6-199.6l22.6,199.6h113
	l44.6-414L275.6,224.7z"/>
<path class="st0" d="M732.5,150.1V0.3H584.6v149.7l73.9,30.5L732.5,150.1z M597.1,12.8H720v129l-61.5,25.3l-61.5-25.3V12.8z"/>
<polygon class="st0" points="707.5,133.4 707.5,81 683.2,91.1 683.2,117.1 670.7,122.2 670.7,80.1 677,80.1 695.1,72.7 695.1,55.8 
	670.7,55.8 670.7,49.6 682.6,42.1 682.6,25.3 634.6,25.3 634.6,42.1 646.4,49.6 646.4,55.8 622.1,55.8 622.1,72.7 640.2,80.1 
	646.4,80.1 646.4,122.2 633.9,117.1 633.9,91.1 609.6,81 609.6,133.4 658.6,153.6 "/>
</svg>
